#!OML:ASF F:\twosubjects\two\Thursday\Session 1\justin.ASF
:FULLY-SPECIFIED
:DEGREES
320
root 9.52242 17.3062 -19.9308 -5.70981 -83.8301 14.4937
lowerback -3.50502 0.538473 -3.1514
upperback -2.31106 0.765715 2.31473
thorax -0.486352 0.417446 4.17807
lowerneck -22.7352 7.91254 -2.87472
upperneck 21.7226 11.886 0.457407
head 10.5004 5.20963 2.43012
rclavicle 3.37934e-015 -2.54444e-014
rhumerus -39.7563 -29.1369 -66.582
rradius 24.166
rwrist 0.085976
rhand -13.6471 11.318
rfingers 7.12502
rthumb 12.4694 -18.29
lclavicle 3.37934e-015 -2.54444e-014
lhumerus -36.441 12.853 85.4148
lradius 27.5557
lwrist -13.4237
lhand 1.97899 40.3426
lfingers 7.12502
lthumb 27.4845 68.357
rfemur -16.026 1.24293 23.7435
rtibia 37.5946
rfoot -28.0909 -12.8343
rtoes -1.62519
lfemur -15.7852 5.47826 -21.7665
ltibia 29.6392
lfoot -20.8799 -6.03493
ltoes -4.39808
321
root 9.52613 17.3103 -19.9314 -5.01739 -83.8734 13.9164
lowerback -3.57996 0.488815 -3.10449
upperback -2.34663 0.698563 2.33572
thorax -0.474257 0.383186 4.17207
lowerneck -22.7671 7.9593 -2.72447
upperneck 21.7421 11.9351 0.331003
head 10.5317 5.22573 2.37382
rclavicle 5.76476e-015 -4.77083e-015
rhumerus -39.578 -29.0502 -67.2401
rradius 24.2043
rwrist 0.940983
rhand -13.9531 10.7063
rfingers 7.12502
rthumb 12.1744 -18.9194
lclavicle 5.76476e-015 -4.77083e-015
lhumerus -36.4183 12.5704 85.7681
lradius 27.7075
lwrist -12.9754
lhand 1.62778 40.6584
lfingers 7.12502
lthumb 27.1486 68.7257
rfemur -16.1858 1.43886 23.8141
rtibia 37.6558
rfoot -28.1148 -12.8258
rtoes -1.36144
lfemur -15.763 4.59813 -21.6788
ltibia 29.4022
lfoot -20.5108 -5.10322
ltoes -3.95554
322
root 9.52805 17.3111 -19.9317 -9.60897 -83.8311 18.3863
lowerback -3.39086 0.493432 -3.61737
upperback -2.31733 0.717652 2.19167
thorax -0.557537 0.400524 4.31171
lowerneck -23.2607 8.00101 -2.43052
upperneck 22.1783 12 0.0794075
head 10.82 5.21673 2.29468
rclavicle 6.41081e-015 -3.18055e-015
rhumerus -39.3358 -28.563 -68.0439
rradius 24.1869
rwrist 0.896717
rhand -13.9404 10.2015
rfingers 7.12502
rthumb 12.1866 -19.4235
lclavicle 6.41081e-015 -3.18055e-015
lhumerus -36.3687 12.1788 86.2058
lradius 27.7383
lwrist -12.8505
lhand 1.18136 40.5329
lfingers 7.12502
lthumb 26.7214 68.6662
rfemur -16.0278 1.5293 23.2705
rtibia 37.6792
rfoot -28.2712 -12.7106
rtoes -0.795484
lfemur -15.4586 3.27466 -22.1967
ltibia 29.28
lfoot -20.0828 -3.69756
ltoes -3.81283
323
root 9.52951 17.3087 -19.9314 -13.1678 -83.7614 21.7242
lowerback -3.13147 0.530107 -3.98974
upperback -2.26132 0.771445 2.07918
thorax -0.65486 0.433847 4.40445
lowerneck -24.1798 7.99186 -2.46445
upperneck 22.8521 12.0698 0.085224
head 11.2371 5.1985 2.38493
rclavicle 4.44781e-015 1.27222e-014
rhumerus -39.1019 -27.8332 -68.8612
rradius 24.2139
rwrist 0.169787
rhand -13.5286 10.0871
rfingers 7.12502
rthumb 12.5836 -19.5139
lclavicle 4.44781e-015 1.27222e-014
lhumerus -36.2899 12.2977 86.312
lradius 27.7491
lwrist -13.7375
lhand 2.65319 39.9803
lfingers 7.12502
lthumb 28.1291 67.8904
rfemur -15.7693 1.47915 22.8574
rtibia 37.684
rfoot -28.2864 -12.7433
rtoes -0.724203
lfemur -15.1662 3.14742 -22.6192
ltibia 29.2474
lfoot -20.0208 -3.43009
ltoes -4.30043
324
root 9.5341 17.307 -19.9319 -8.13824 -83.9235 16.6593
lowerback -3.0965 0.560682 -3.37885
upperback -2.26085 0.794955 2.22359
thorax -0.66819 0.438778 4.2082
lowerneck -24.463 7.97596 -3.02818
upperneck 22.93 12.1223 0.620289
head 11.2366 5.24178 2.68238
rclavicle 7.45443e-017 2.06736e-014
rhumerus -39.0161 -27.6258 -69.3136
rradius 24.2334
rwrist 0.379513
rhand -12.9397 10.1955
rfingers 7.12502
rthumb 13.1513 -19.3697
lclavicle 7.45443e-017 2.06736e-014
lhumerus -36.2387 12.3605 86.3429
lradius 27.8499
lwrist -14.2273
lhand 4.30243 39.6444
lfingers 7.12502
lthumb 29.7044 67.2848
rfemur -15.7864 1.52898 23.4887
rtibia 37.7072
rfoot -28.2291 -12.7287
rtoes -0.212033
lfemur -15.2282 3.78968 -22.0249
ltibia 29.2536
lfoot -20.1703 -3.79848
ltoes -5.22071
325
root 9.54099 17.3063 -19.9302 -4.14984 -83.9591 12.6789
lowerback -3.15407 0.561991 -2.84659
upperback -2.20475 0.784354 2.29687
thorax -0.569398 0.424359 3.98344
lowerneck -24.6978 8.01292 -3.71685
upperneck 23.001 12.2026 1.48704
head 11.1868 5.33716 3.11654
rclavicle 6.75868e-015 -5.56597e-015
rhumerus -38.8173 -27.8556 -69.6223
rradius 24.1054
rwrist 1.21135
rhand -12.3865 10.3422
rfingers 7.12502
rthumb 13.6846 -19.1879
lclavicle 6.75868e-015 -5.56597e-015
lhumerus -36.0468 12.2477 86.52
lradius 27.8983
lwrist -14.332
lhand 4.54331 39.5869
lfingers 7.12502
lthumb 29.9343 67.186
rfemur -15.8632 1.50446 23.9442
rtibia 37.7361
rfoot -28.3053 -12.4688
rtoes 1.16807
lfemur -15.3608 4.14561 -21.5915
ltibia 29.3441
lfoot -20.2857 -4.00239
ltoes -5.99183
326
root 9.54733 17.3056 -19.9284 -6.14007 -83.9103 14.6345
lowerback -3.13176 0.557684 -2.98604
upperback -2.13964 0.783887 2.19544
thorax -0.515417 0.423954 3.9573
lowerneck -25.1509 8.09347 -3.74545
upperneck 23.2842 12.2935 1.73308
head 11.3512 5.3913 3.25927
rclavicle -8.22472e-015 2.38542e-015
rhumerus -38.4785 -27.4012 -70.3907
rradius 24.0963
rwrist 1.00324
rhand -12.1996 10.2837
rfingers 7.12502
rthumb 13.8647 -19.2342
lclavicle -8.22472e-015 2.38542e-015
lhumerus -35.8181 11.9127 86.91
lradius 27.9124
lwrist -14.3374
lhand 3.47461 39.9931
lfingers 7.12502
lthumb 28.914 67.7716
rfemur -15.8625 1.34331 23.7043
rtibia 37.7523
rfoot -28.3033 -12.273
rtoes 1.57482
lfemur -15.4138 4.31882 -21.8407
ltibia 29.5072
lfoot -20.3634 -4.19758
ltoes -5.88885
327
root 9.55096 17.3084 -19.9317 -8.75747 -83.8913 17.2415
lowerback -3.06428 0.555306 -3.3027
upperback -2.1322 0.78843 2.10934
thorax -0.549791 0.430426 4.04662
lowerneck -25.1871 8.09559 -3.30917
upperneck 23.1558 12.282 1.18479
head 11.3849 5.34983 2.99537
rclavicle 7.55382e-015 -6.36111e-015
rhumerus -38.1814 -26.2359 -71.5081
rradius 24.3588
rwrist -0.200042
rhand -12.3011 9.94037
rfingers 7.12502
rthumb 13.7669 -19.5842
lclavicle 7.55382e-015 -6.36111e-015
lhumerus -35.6485 11.5038 87.3117
lradius 27.8897
lwrist -14.2235
lhand 2.26796 40.9785
lfingers 7.12502
lthumb 27.7608 68.9487
rfemur -15.8671 1.36773 23.4171
rtibia 37.7837
rfoot -28.1441 -12.4058
rtoes 0.841527
lfemur -15.4429 4.54905 -22.1121
ltibia 29.6299
lfoot -20.3627 -4.71656
ltoes -4.84097
328
root 9.55636 17.3135 -19.9383 -9.46835 -83.7848 17.9017
lowerback -2.9487 0.52156 -3.45328
upperback -2.096 0.745386 2.08605
thorax -0.575124 0.410923 4.10559
lowerneck -25.0761 7.99774 -3.47182
upperneck 22.9631 12.2093 1.12134
head 11.2885 5.3045 2.97083
rclavicle 4.77083e-015 -3.18055e-015
rhumerus -37.9536 -25.3142 -72.4201
rradius 24.7109
rwrist -0.80595
rhand -12.2303 9.57876
rfingers 7.12502
rthumb 13.8351 -19.9411
lclavicle 4.77083e-015 -3.18055e-015
lhumerus -35.3845 11.3206 87.4972
lradius 27.7345
lwrist -14.2416
lhand 2.34221 41.7475
lfingers 7.12502
lthumb 27.8318 69.7062
rfemur -15.805 1.58582 23.3453
rtibia 37.7862
rfoot -28.1702 -12.6615
rtoes 0.999647
lfemur -15.4516 4.81619 -22.1714
ltibia 29.7363
lfoot -20.3626 -5.31101
ltoes -3.80041
